<svg width="258" height="270" viewBox="0 0 258 270" fill="none" xmlns="http://www.w3.org/2000/svg">
<path d="M176.315 131.955C186.808 136.272 195.823 142.804 204.125 150.436C216.939 162.216 227.065 176.056 235.254 191.347C242.776 205.386 248.781 220.04 252.579 235.549C254.942 245.197 256.572 254.973 257.528 264.859C257.648 266.126 257.836 267.39 257.984 268.657C258.073 269.414 257.875 269.831 256.97 269.827C255.418 269.819 253.862 270.011 252.31 269.995C237.297 269.835 222.285 269.874 207.272 269.831C182.487 269.761 157.703 269.539 132.914 269.402C116.837 269.316 100.764 269.266 84.6866 269.211C78.315 269.188 71.9433 269.246 65.5717 269.156C62.9396 269.117 60.4167 268.31 57.9523 267.409C52.5477 265.436 47.8723 262.285 43.6415 258.44C35.441 250.988 29.5257 241.875 24.628 232.036C17.9405 218.594 13.9358 204.313 11.4909 189.561C9.26826 176.146 8.75354 162.649 9.80248 149.094C9.88047 148.104 10.052 147.125 10.1261 146.134C10.2002 145.132 10.6097 144.376 11.5182 143.919C12.185 143.237 13.0546 143.26 13.8968 143.284C23.3958 143.529 32.5633 141.798 41.5007 138.686C42.0973 138.479 42.7017 138.249 43.3568 138.393C44.9127 138.089 46.2268 137.235 47.5838 136.49C49.6583 135.356 49.7596 135.356 50.6097 137.485C53.0468 143.603 55.1291 149.843 56.9111 156.18C60.2217 167.968 63.0176 179.886 65.8096 191.803C65.9383 192.349 65.95 192.934 66.3711 193.414C66.917 193.285 67.0028 192.755 67.2095 192.365C74.9849 177.651 85.3222 164.868 96.7786 152.912C102.133 147.324 107.748 142.079 114.314 137.914C119.672 134.513 125.307 131.799 131.569 130.532C132.189 130.407 132.825 130.372 133.452 130.298C134.322 132.766 135.944 134.416 138.553 134.997C141.403 136.58 144.577 136.962 147.713 137.497C154.494 138.655 161.224 138.343 167.904 136.767C170.914 136.058 173.729 134.977 175.586 132.275C175.753 132.029 176.018 131.928 176.322 131.947L176.315 131.955Z" fill="#1C4332"/>
<path d="M209.456 52.5778C217.317 51.7511 222.355 56.9181 223.057 64.4015C224.028 74.7629 216.783 85.5805 208.411 89.1838C205.201 90.5643 201.957 91.1492 198.518 90.2445C196.767 89.7843 196.74 89.7999 195.859 91.3208C193.289 95.7508 190.185 99.7596 186.496 103.316C183.431 106.272 180.062 108.83 176.354 110.924C175.667 111.31 174.981 111.665 174.622 112.414C173.184 113.494 171.429 113.588 169.772 113.759C164.64 114.298 159.512 114.914 154.322 114.785C149.358 114.664 144.433 114.259 139.524 113.568C138.19 113.381 136.861 113.178 135.511 113.221C134.654 112.262 133.585 111.568 132.489 110.944C122.819 105.445 116.01 97.3302 111.039 87.5264C110.781 87.0234 110.532 86.5125 110.302 85.9978C109.998 85.3153 109.53 85.0619 108.777 85.249C98.4203 87.815 90.4889 79.4308 87.9465 72.4972C86.1528 67.6031 85.8915 62.6974 88.2194 57.8735C89.7948 54.6134 92.4815 52.6675 95.8701 51.6302C96.3458 51.4859 96.8215 51.3962 97.2349 51.1037C98.7244 50.511 100.152 51.1349 101.571 51.4079C102.846 51.6536 103.509 51.4079 103.84 50.0313C105.86 41.6237 109.163 33.6801 112.766 25.8535C113.129 25.0658 113.542 24.3521 114.303 23.8959C117.028 19.6413 120.191 15.7495 123.946 12.3646C130.933 6.05497 138.923 1.78485 148.344 0.482369C161.532 -1.34267 173.238 2.01883 183.564 10.4343C187.888 13.9596 191.366 18.1946 194.63 22.6597C195.761 24.4574 194.759 25.9939 193.792 27.312C192.583 28.9576 192.255 30.6735 192.205 32.6506C192.049 38.8081 192.953 44.7551 195.242 50.4837C195.874 52.0708 196.779 53.4942 197.695 54.9254C198.588 56.3214 199.758 56.6802 201.329 56.3292C203.221 55.9042 204.956 55.21 206.492 54.0012C207.366 53.3148 208.212 52.492 209.471 52.5778H209.456Z" fill="#DAC3A1"/>
<path d="M5.97717 100.473C6.12924 98.5196 5.39226 96.714 4.98282 94.8617C3.72721 89.215 2.84985 83.5137 2.06217 77.7851C1.35248 72.6103 1.00153 67.4003 0.5492 62.2099C0.280141 59.1253 -0.0357103 56.0173 0.00328373 52.9054C0.0266801 51.0569 0.0110825 51.0023 1.71902 50.5305C6.26962 49.2748 10.8397 48.1595 15.5619 47.6876C19.0012 47.3444 22.4248 46.8258 25.8875 46.935C32.0954 47.1339 38.2603 47.7344 44.3278 49.1305C45.9733 49.5088 47.6111 49.9377 49.241 50.3706C50.2588 50.6397 50.9685 51.0998 51.0036 52.3828C51.1985 59.1604 52.2592 65.9263 51.7483 72.7078C51.4247 77.0052 51.6548 81.3221 51.0854 85.6117C50.7501 88.1192 50.7969 90.6891 50.6838 93.2238C50.5356 96.5424 50.2393 99.8532 50.0677 103.168C49.9117 106.178 49.6271 109.212 49.0383 112.192C48.8472 113.155 48.8823 114.165 48.7146 115.136C48.5664 115.998 48.2662 116.762 47.1042 116.711C46.414 116.684 45.7706 117.191 45.0375 117.078C43.9534 114.535 44.398 111.794 44.0782 109.158C42.9669 100.009 35.1876 93.1692 26.1527 93.9024C20.0852 94.3937 14.3726 96.2655 9.0421 99.2527C8.08284 99.7908 7.24057 100.672 5.97717 100.477V100.473Z" fill="#E2E2E2"/>
<path d="M5.97717 100.473C11.4207 96.9129 17.3322 94.7096 23.774 93.6177C30.7111 92.4439 36.178 94.8617 40.947 99.5959C42.3859 101.023 43.3178 102.716 43.7741 104.708C44.7099 108.783 45.1934 112.894 45.0336 117.074C44.7606 117.328 44.6241 117.651 44.6436 118.018C44.8035 121.052 44.281 124.047 44.1523 127.065C43.9924 130.848 43.6298 134.626 43.3529 138.405C40.6117 139.93 37.5896 140.655 34.5949 141.431C27.0261 143.389 19.3443 144.383 11.5143 143.931C11.5845 142.796 10.8982 141.919 10.4498 140.979C7.34586 134.474 4.51489 127.864 2.31953 120.985C1.02883 116.949 0.553099 112.855 0.853353 108.659C1.00153 106.561 1.8594 104.685 3.19689 103.082C4.00797 102.111 4.89313 101.179 5.97327 100.481L5.97717 100.473Z" fill="#DAC3A1"/>
<path d="M176.315 131.955C175.449 134.244 173.57 135.375 171.456 136.253C167.756 137.793 163.848 138.331 159.902 138.608C153.086 139.088 146.375 138.475 139.871 136.268C139.231 136.05 138.214 136.151 138.214 135.016C138.307 134.19 139.021 133.905 139.575 133.492C147.95 127.194 157.332 122.693 166.742 118.252C168.403 117.468 170.076 116.696 171.791 116.025C172.427 115.775 173.043 115.276 173.772 115.791C173.648 117.686 173.324 119.558 173.347 121.473C173.382 124.402 173.995 127.194 174.884 129.959C175.157 130.809 175.597 131.464 176.315 131.955Z" fill="#DAC3A0"/>
<path d="M173.772 115.791C161.844 120.72 150.282 126.332 139.805 133.971C139.294 134.346 138.744 134.665 138.214 135.012C137.878 135.094 137.481 135.332 137.219 135.227C135.897 134.697 134.915 133.698 133.936 132.688C133.246 131.975 133.503 131.117 133.449 130.302C135.285 126.266 135.738 121.956 135.925 117.601C135.987 116.13 135.991 114.648 135.507 113.221C135.426 112.476 135.699 112.211 136.475 112.371C137.929 112.671 139.391 112.96 140.861 113.151C148.82 114.181 156.806 114.442 164.8 113.674C167.674 113.397 170.583 113.213 173.386 112.394C173.8 112.274 174.213 112.184 174.618 112.41C174.334 113.533 174.053 114.66 173.768 115.783L173.772 115.791Z" fill="black"/>
<path d="M209.456 52.5778C208.547 53.2368 207.607 53.8569 206.738 54.5666C204.929 56.0407 202.796 56.6919 200.565 57.078C199.306 57.2964 198.366 56.922 197.524 55.7521C194.825 52.0045 193.503 47.7656 192.486 43.3395C191.507 39.0967 191.71 34.811 191.635 30.5253C191.616 29.2501 192.287 28.3727 192.992 27.5342C194.201 26.1031 194.704 24.4964 194.622 22.6597C196.486 21.404 197.434 21.4781 199.076 23.0223C200.912 24.746 202.035 26.9688 203.146 29.1643C204.102 31.0478 204.839 33.0366 205.693 34.9709C207.592 39.2761 208.629 43.7568 208.727 48.4793C208.754 49.8441 208.808 51.2831 209.456 52.5778Z" fill="#E2E2E2"/>
<path d="M114.299 23.8998C111.031 30.9503 107.88 38.0438 105.634 45.5077C105.045 47.4653 104.476 49.4269 104.121 51.4391C103.996 52.1371 103.77 52.4413 103.014 52.2775C101.095 51.8641 99.1612 51.4937 97.2349 51.1076C97.8081 44.2832 99.5901 37.7864 102.823 31.7537C104.819 28.0334 107.697 25.2217 112.006 24.1961C112.774 24.0128 113.527 23.9388 114.299 23.8998Z" fill="#E2E2E2"/>
<path d="M188.04 192.755C189.319 194.26 190.056 195.991 190.817 197.719C194.494 206.076 197.227 214.768 199.965 223.46C202.932 232.882 205.33 242.444 207.459 252.092C208.535 256.978 209.272 261.915 210.279 266.809C210.364 267.218 210.329 267.655 210.36 268.08C210.419 268.934 210.111 269.445 209.171 269.406C208.746 269.387 208.321 269.406 207.896 269.406C197.418 269.387 186.937 269.367 176.459 269.344C176.174 269.344 175.894 269.355 175.609 269.34C174.232 269.27 174.166 269.199 174.583 267.838C175.862 263.654 177.208 259.489 178.444 255.289C180.592 247.985 182.409 240.595 183.922 233.135C184.827 228.659 185.587 224.135 186.063 219.596C186.441 215.957 186.816 212.311 187.061 208.65C187.416 203.373 187.943 198.109 188.048 192.755H188.04Z" fill="black"/>
<path d="M114.03 179.855C113.242 181.855 112.552 183.602 111.862 185.353C107.908 195.41 103.86 205.428 100.249 215.618C97.5819 223.148 95.0317 230.714 92.6258 238.326C89.6271 247.81 86.6012 257.294 84.051 266.914C83.5363 268.856 83.4661 268.903 81.4423 268.907C77.1919 268.915 72.9455 268.919 68.6952 268.891C67.0145 268.88 66.9443 268.72 67.5916 267.195C71.1869 258.744 74.7236 250.267 78.393 241.847C80.5376 236.922 82.7681 232.032 84.9908 227.142C87.5995 221.398 90.6137 215.872 93.6747 210.381C99.3873 200.137 105.494 190.13 112.79 180.904C113.043 180.584 113.082 180.081 114.026 179.855H114.03Z" fill="black"/>
<path d="M130.559 35.1931C138.557 34.9007 147.12 41.4287 148.344 50.6982C148.57 52.4062 148.586 52.4101 150.259 52.3945C151.109 52.3867 151.959 52.3555 152.809 52.3321C155.047 52.2736 155.059 52.2775 155.43 50.1249C156.089 46.2954 157.828 43.0392 160.604 40.3368C166.044 35.0489 174.646 33.6606 181.072 37.0143C188.286 40.7813 192.302 48.3311 191.066 55.7989C189.729 63.8673 183.696 69.8688 175.749 71.0465C166.301 72.4465 157.352 66.094 155.488 56.6646C155.254 55.4869 154.548 54.8955 153.371 54.8903C152.236 54.8903 151.101 54.9605 149.974 54.8825C148.82 54.8006 148.457 55.2412 148.239 56.3877C147.03 62.6896 143.462 67.2873 137.555 69.7284C130.762 72.5362 124.266 71.5925 118.685 66.7686C113.164 61.9915 111.265 55.7521 113.09 48.7015C114.942 41.5418 119.816 37.2405 126.983 35.5753C128.145 35.3062 129.37 35.3101 130.567 35.1892L130.559 35.1931Z" fill="#040403"/>
<path d="M147.455 98.9212C141.516 98.9368 136.326 95.3257 134.228 89.7219C133.297 87.234 133.827 86.2591 136.424 85.9666C141.544 85.3933 146.675 84.8903 151.799 84.3482C153.975 84.1181 156.151 83.8569 158.331 83.6307C160.713 83.3811 161.587 84.3131 161.251 86.6958C160.241 93.7932 154.478 98.9017 147.455 98.9173V98.9212Z" fill="#060605"/>
<path d="M149.424 29.9559C144.784 30.1119 140.335 29.4256 136.057 27.7526C135.402 27.4952 134.743 27.2184 134.135 26.8674C133.464 26.4813 133.051 25.8652 133.452 25.0931C133.858 24.3131 134.537 24.3404 135.277 24.6797C138.198 26.0173 141.267 26.8401 144.464 27.117C150.594 27.6434 156.619 27.1794 162.464 25.1165C164.098 24.5393 164.94 24.6446 165.217 25.5298C165.463 26.3214 164.94 27.0624 163.525 27.6317C159.532 29.2345 155.328 29.7648 151.066 29.9559C150.501 29.9793 149.935 29.9559 149.428 29.9559H149.424Z" fill="#090806"/>
<path d="M213.496 63.0132C212.423 63.6333 211.901 64.7447 211.324 65.7859C209.202 69.6115 208.169 73.7919 207.338 78.0425C207.217 78.6664 207.136 79.3021 207.007 79.9221C206.863 80.628 206.43 81.0803 205.689 81.053C204.819 81.0218 204.476 80.4291 204.437 79.6336C204.418 79.2124 204.394 78.7756 204.468 78.3623C205.365 73.3941 206.644 68.5507 209.237 64.1597C209.737 63.3135 210.353 62.5258 210.969 61.7537C211.554 61.0166 212.349 60.5331 213.246 60.264C215.11 59.7063 216.674 61.1297 216.365 63.0561C216.28 63.5943 216.034 63.996 215.531 64.1792C215.005 64.3742 214.556 64.187 214.233 63.7425C214.034 63.4695 213.96 63.0834 213.499 63.0171L213.496 63.0132Z" fill="#0A0907"/>
<path d="M148.114 22.2424C145.221 22.0786 142.468 21.9889 139.762 21.4001C138.861 21.2051 137.976 20.9516 137.176 20.4876C136.486 20.0898 136.1 19.501 136.506 18.7249C136.849 18.0698 137.469 17.9567 138.147 18.2414C140.273 19.1383 142.526 19.2358 144.788 19.4074C149.701 19.7817 154.513 19.2787 159.259 17.9996C159.598 17.9099 159.949 17.8163 160.292 17.8163C160.811 17.8163 161.294 18.0035 161.466 18.5416C161.653 19.1266 161.513 19.6608 161.013 20.0625C160.331 20.6046 159.524 20.858 158.697 21.053C155.168 21.8719 151.581 22.1215 148.114 22.2385V22.2424Z" fill="#100E0B"/>
<path d="M104.663 75.9991C104.605 76.6932 104.613 77.2665 104.496 77.8124C104.386 78.3311 103.996 78.6742 103.454 78.7366C102.811 78.8068 102.324 78.4637 102.136 77.8904C101.961 77.364 101.965 76.779 101.899 76.2214C101.36 71.6666 100.066 67.3731 97.5234 63.5085C96.9775 62.6779 96.3692 61.894 95.5971 61.2662C95.0473 60.8216 94.5092 60.4083 93.6942 60.7982C92.9299 61.1648 92.2787 60.9035 92.0447 60.0495C91.7991 59.1487 92.267 58.5364 93.0547 58.1933C93.8736 57.8384 94.708 57.9671 95.5269 58.2869C96.8917 58.8172 97.9484 59.7609 98.818 60.884C102.292 65.3725 104.035 70.5318 104.663 75.9991Z" fill="#0A0907"/>
<path d="M150.598 60.0222C150.442 63.645 149.424 66.8154 148.539 70.0131C147.748 72.8716 147.557 72.5011 150.271 73.2654C150.742 73.398 151.23 73.5306 151.659 73.7607C152.209 74.0531 152.45 74.5835 152.302 75.1918C152.154 75.8041 151.674 76.2331 151.07 76.1512C149.257 75.9016 147.412 75.6403 145.95 74.3963C145.166 73.7295 145.123 72.7663 145.314 71.842C145.529 70.8086 145.849 69.7947 146.141 68.7808C147.003 65.7937 147.935 62.8261 148.161 59.6985C148.181 59.4178 148.22 59.1331 148.305 58.8679C148.469 58.3493 148.832 58.0256 149.389 58.0178C150.06 58.0061 150.434 58.4078 150.544 59.0278C150.618 59.4412 150.594 59.8701 150.602 60.0261L150.598 60.0222Z" fill="#0B0A08"/>
<path d="M145.786 53.1198C145.821 61.547 139.017 68.4299 130.598 68.4883C122.187 68.5468 115.227 61.7108 115.176 53.3421C115.129 44.9267 121.988 37.997 130.368 37.9892C138.877 37.9814 145.747 44.7239 145.782 53.1198H145.786Z" fill="#DAC3A1"/>
<path d="M173.176 37.9892C181.653 38.036 188.535 44.876 188.508 53.2251C188.481 61.6289 181.591 68.4961 173.195 68.4883C164.663 68.4806 157.804 61.5392 157.913 53.0223C158.019 44.6693 164.85 37.9424 173.18 37.9892H173.176Z" fill="#DAC3A1"/>
<path d="M136.564 88.5169C144.004 87.7175 151.261 86.9337 158.541 86.1499C158.455 90.9659 154.326 95.4583 149.424 96.2617C143.786 97.1859 138.627 94.1792 136.564 88.5169Z" fill="#FEFEFE"/>
<path d="M134.349 53.346C134.384 55.1866 133.905 56.7075 132.704 57.9476C131 59.7141 128.574 59.7063 126.866 57.9476C124.663 55.6858 124.675 51.2519 126.886 49.0096C128.801 47.0676 131.522 47.2665 133.117 49.4932C133.967 50.6786 134.408 52.0084 134.349 53.3421V53.346Z" fill="#030202"/>
<path d="M176.872 54.2507C176.919 55.873 176.424 57.3198 175.363 58.5403C173.41 60.7982 170.271 60.7319 168.387 58.4156C166.516 56.1148 166.601 52.219 168.571 49.9806C170.524 47.7617 173.437 47.7461 175.383 49.9611C176.459 51.1856 176.919 52.6324 176.872 54.2507Z" fill="#020202"/>
<path d="M20.9994 64.0027C20.9994 67.8687 17.8654 71.0027 13.9994 71.0027C10.1334 71.0027 6.99942 67.8687 6.99942 64.0027C6.99942 60.1367 10.1334 57.0027 13.9994 57.0027C17.8654 57.0027 20.9994 60.1367 20.9994 64.0027Z" fill="#040403"/>
<path d="M18.9994 64.0027C18.9994 66.7641 16.7608 69.0027 13.9994 69.0027C11.238 69.0027 8.99942 66.7641 8.99942 64.0027C8.99942 61.2413 11.238 59.0027 13.9994 59.0027C16.7608 59.0027 18.9994 61.2413 18.9994 64.0027Z" fill="white"/>
</svg>
